<?xml version="1.0" standalone="no"?>
<!DOCTYPE svg PUBLIC "-//W3C//DTD SVG 20010904//EN"
 "http://www.w3.org/TR/2001/REC-SVG-20010904/DTD/svg10.dtd">
<svg version="1.0" xmlns="http://www.w3.org/2000/svg"
 width="70.000000pt" height="64.000000pt" viewBox="0 0 70.000000 64.000000"
 preserveAspectRatio="xMidYMid meet">

<g transform="translate(0.000000,64.000000) scale(0.100000,-0.100000)"
fill="#000000" stroke="none">
<path d="M153 581 c-10 -12 -22 -21 -27 -21 -16 0 -75 -67 -82 -94 -3 -14 -10
-29 -15 -32 -12 -7 -12 -54 1 -54 5 0 12 -16 16 -36 4 -23 13 -38 25 -41 10
-3 21 -14 24 -24 4 -10 14 -19 24 -19 10 0 26 -9 36 -20 24 -27 78 -26 104 1
10 11 24 41 31 67 7 26 14 53 16 60 3 9 18 12 46 10 41 -3 41 -3 57 -61 9 -31
24 -66 33 -77 24 -27 79 -27 103 0 10 11 26 20 36 20 10 0 21 9 24 20 3 11 13
20 21 20 8 0 19 12 24 28 6 15 15 35 20 44 12 22 13 68 1 68 -5 0 -12 15 -15
34 -4 22 -14 37 -26 41 -10 3 -22 15 -25 26 -4 10 -15 19 -25 19 -11 0 -24 9
-30 20 -8 15 -21 20 -54 20 -53 0 -71 -22 -89 -106 l-11 -54 -47 0 -46 0 -6
40 c-3 21 -13 56 -23 77 -17 34 -23 38 -61 41 -33 2 -46 -2 -60 -17z m32 -23
c-2 -7 -9 -39 -15 -70 -13 -67 -40 -82 -40 -23 0 46 25 105 44 105 9 0 14 -6
11 -12z m370 -18 c19 -37 20 -110 2 -110 -9 0 -19 26 -29 70 -12 57 -12 70 -2
70 8 0 20 -13 29 -30z m-440 -57 c-4 -27 -9 -50 -11 -53 -10 -10 -23 26 -18
50 10 43 13 50 25 50 8 0 9 -14 4 -47z m498 3 c6 -25 6 -41 -2 -49 -15 -15
-17 -10 -25 47 -6 37 -5 47 6 44 7 -3 17 -21 21 -42z m37 -34 c0 -13 -4 -20
-10 -17 -5 3 -10 21 -10 38 0 24 3 28 10 17 5 -8 10 -25 10 -38z m-589 -15
c-13 -13 -15 11 -4 40 7 16 8 15 11 -6 2 -13 -1 -28 -7 -34z m199 -11 c0 -3
-4 -8 -10 -11 -5 -3 -10 -1 -10 4 0 6 5 11 10 11 6 0 10 -2 10 -4z m170 -6 c0
-6 -33 -10 -80 -10 -47 0 -80 4 -80 10 0 6 33 10 80 10 47 0 80 -4 80 -10z
m30 0 c0 -5 -2 -10 -4 -10 -3 0 -8 5 -11 10 -3 6 -1 10 4 10 6 0 11 -4 11 -10z"/>
<path d="M170 99 c0 -52 3 -70 13 -67 6 3 13 17 15 31 4 35 30 35 34 0 2 -14
9 -28 16 -31 9 -3 12 15 12 67 0 56 -3 71 -15 71 -9 0 -15 -9 -15 -25 0 -16
-6 -25 -15 -25 -9 0 -15 9 -15 25 0 16 -6 25 -15 25 -12 0 -15 -15 -15 -71z"/>
<path d="M364 148 c4 -13 11 -44 17 -70 13 -58 33 -62 46 -11 l10 38 10 -35
c15 -55 35 -44 51 28 7 35 11 66 9 69 -11 10 -27 -9 -27 -32 0 -38 -17 -38
-24 0 -8 39 -36 49 -36 13 0 -43 -17 -53 -24 -14 -5 23 -12 36 -23 36 -11 0
-14 -6 -9 -22z"/>
<path d="M306 118 c-10 -13 -12 -26 -7 -31 5 -5 7 -17 4 -26 -4 -11 3 -8 21 9
22 20 25 26 11 28 -11 3 -14 10 -10 23 8 25 0 24 -19 -3z"/>
</g>
</svg>
